Coordinates
version=1
nRows=8
nColumns=40
inDegrees=yes

Units are S.I. units (second, meters, Newtons, ...)
If the header above contains a line with 'inDegrees', this indicates whether rotational values are in degrees (yes) or radians (no).

endheader
time	pelvis_tilt	pelvis_list	pelvis_rotation	pelvis_tx	pelvis_ty	pelvis_tz	hip_flexion_r	hip_adduction_r	hip_rotation_r	knee_angle_r	knee_angle_r_beta	ankle_angle_r	subtalar_angle_r	mtp_angle_r	hip_flexion_l	hip_adduction_l	hip_rotation_l	knee_angle_l	knee_angle_l_beta	ankle_angle_l	subtalar_angle_l	mtp_angle_l	lumbar_extension	lumbar_bending	lumbar_rotation	arm_flex_r	arm_add_r	arm_rot_r	elbow_flex_r	pro_sup_r	wrist_flex_r	wrist_dev_r	arm_flex_l	arm_add_l	arm_rot_l	elbow_flex_l	pro_sup_l	wrist_flex_l	wrist_dev_l
      6.00000000	     49.10851864	      1.17373048	   -178.73393077	      0.42217766	      0.68997585	     -0.60586263	     99.81141682	    -12.22272193	      2.10254356	     56.08998901	      0.97895499	      9.72973812	      0.00000000	      0.00000000	     99.78302855	    -14.13457443	     -0.45296680	     54.68342266	      0.95440577	      7.91487804	      0.00000000	      0.00000000	    -38.99136621	     -4.64592715	     -0.47208195	     66.40264884	    -17.23388507	     33.92624182	     24.74465794	     81.20356850	      0.00000000	      0.00000000	     73.85611577	     -4.22050543	      7.18521779	     14.72385828	     14.98983528	      0.00000000	      0.00000000
      6.00500000	     48.88353476	      1.17743119	   -178.65988107	      0.42239193	      0.68869278	     -0.60580684	     99.88180453	    -12.27726531	      2.24630005	     56.53916015	      0.98679450	      9.82514717	      0.00000000	      0.00000000	     99.82502110	    -14.06331101	     -0.32793273	     55.04203896	      0.96066481	      7.99258230	      0.00000000	      0.00000000	    -38.98531176	     -4.58799859	     -0.52528466	     66.27048461	    -17.21645242	     33.93559067	     24.74169952	     81.20040863	      0.00000000	      0.00000000	     73.75060814	     -4.23294504	      7.14166982	     14.69176005	     14.97614242	      0.00000000	      0.00000000
      6.01000000	     48.67219719	      1.17737740	   -178.61628188	      0.42256807	      0.68742946	     -0.60580760	     99.95286543	    -12.32116531	      2.33680378	     56.95340931	      0.99402451	      9.94447371	      0.00000000	      0.00000000	     99.87347022	    -14.02332882	     -0.20288556	     55.41285721	      0.96713681	      8.11774202	      0.00000000	      0.00000000	    -38.94782847	     -4.55361869	     -0.55058736	     66.10305428	    -17.17724043	     33.95676725	     24.73160392	     81.19991783	      0.00000000	      0.00000000	     73.58936469	     -4.24438857	      7.08420741	     14.65664712	     14.96217105	      0.00000000	      0.00000000
      6.01500000	     48.45507901	      1.19658717	   -178.57581935	      0.42273539	      0.68610627	     -0.60569751	    100.02586680	    -12.34542046	      2.45404135	     57.40470404	      1.00190109	     10.09606438	      0.00000000	      0.00000000	     99.96699462	    -14.01761363	     -0.13289562	     55.87069043	      0.97512750	      8.27203739	      0.00000000	      0.00000000	    -38.91877122	     -4.48300197	     -0.55422171	     65.96817053	    -17.16516380	     33.96415257	     24.72701007	     81.19771729	      0.00000000	      0.00000000	     73.42923033	     -4.24381123	      7.03011029	     14.63226246	     14.95168228	      0.00000000	      0.00000000
      6.02000000	     48.23811216	      1.21066443	   -178.57928279	      0.42275009	      0.68462905	     -0.60573770	    100.13271896	    -12.39175063	      2.42195229	     57.94172859	      1.01127394	     10.32973601	      0.00000000	      0.00000000	    100.10993347	    -14.13791851	     -0.18582749	     56.43023740	      0.98489344	      8.49552903	      0.00000000	      0.00000000	    -38.86766805	     -4.45799508	     -0.53983508	     65.82324610	    -17.15975402	     33.96640453	     24.73202389	     81.19370125	      0.00000000	      0.00000000	     73.25045205	     -4.26251430	      6.93843750	     14.63638355	     14.93059811	      0.00000000	      0.00000000
      6.02500000	     48.08876021	      1.25163147	   -178.65052241	      0.42294106	      0.68328359	     -0.60586561	    100.22099316	    -12.29136283	      2.48720433	     58.29245819	      1.01739532	     10.60101377	      0.00000000	      0.00000000	    100.27612715	    -14.24099436	     -0.04766653	     56.88552014	      0.99283962	      8.75942920	      0.00000000	      0.00000000	    -38.75097204	     -4.44466883	     -0.37211626	     65.60880898	    -17.23559205	     33.91857766	     24.79880774	     81.17298817	      0.00000000	      0.00000000	     73.00991607	     -4.11983285	      6.62185629	     14.99040810	     14.86235071	      0.00000000	      0.00000000
      6.03000000	     47.88492402	      1.27764855	   -178.60821682	      0.42309253	      0.68200658	     -0.60579047	    100.29732595	    -12.35323740	      2.52055994	     58.72505240	      1.02494552	     10.68203530	      0.00000000	      0.00000000	    100.35655783	    -14.23354710	      0.01719933	     57.28134609	      0.99974809	      8.85942505	      0.00000000	      0.00000000	    -38.72487261	     -4.37705831	     -0.45178033	     65.49696157	    -17.15912293	     33.94339792	     24.79215118	     81.17030602	      0.00000000	      0.00000000	     72.85097052	     -4.24878485	      6.57019900	     14.79323789	     14.82788398	      0.00000000	      0.00000000
      6.03500000	     47.78494400	      1.27839617	   -178.51523993	      0.42339083	      0.68131611	     -0.60553368	    100.29567150	    -12.43882189	      2.58944088	     58.77445541	      1.02580776	     10.69390482	      0.00000000	      0.00000000	    100.34001392	    -14.13698994	      0.00494410	     57.31195343	      1.00028229	      8.85962200	      0.00000000	      0.00000000	    -38.67416685	     -4.29103096	     -0.49767452	     65.44113707	    -17.16719755	     33.94962748	     24.77197964	     81.17064562	      0.00000000	      0.00000000	     72.82443613	     -4.21642976	      6.56792532	     14.78942512	     14.82643163	      0.00000000	      0.00000000
